<?xml version="1.0" encoding="UTF-8"?>
<svg width="200px" height="200px" viewBox="0 0 200 200" version="1.1" xmlns="http://www.w3.org/2000/svg" xmlns:xlink="http://www.w3.org/1999/xlink">
    <title>lunor</title>
    <g id="页面-1" stroke="none" stroke-width="1" fill="none" fill-rule="evenodd">
        <g id="编组-3" transform="translate(0, -26)" fill="#000000" fill-rule="nonzero">
            <g id="lunor" transform="translate(0, 26)">
                <path d="M61.3124764,180.864933 C62.0734021,179.546971 63.7676517,179.100588 65.0966889,179.867908 L99.966,200 L98.3463172,199.986603 C92.0529485,199.884565 85.9009044,199.201161 79.9415492,197.987755 L60.9633556,187.027051 C59.6343184,186.259731 59.173773,184.569276 59.9346986,183.251314 L61.3124764,180.864933 Z M69.5791431,166.546647 C70.3400687,165.228685 72.0343184,164.782301 73.3633556,165.549621 L126.75908,196.379561 C122.816422,197.471832 118.775908,198.328667 114.653622,198.933978 L69.2300223,172.708765 C67.900985,171.941445 67.4404396,170.25099 68.2013653,168.933028 L69.5791431,166.546647 Z M200,100 C200,142.087671 173.999268,178.102545 137.184181,192.858248 L137.055949,192.777033 L77.4966889,158.390478 C76.1676517,157.623158 75.7071063,155.932703 76.468032,154.614741 L155.885452,17.0612084 C182.499946,35.0297061 200,65.4711747 200,100 Z M148.784006,12.6861269 L48.7785301,185.903591 C46.7499703,184.691422 44.7679443,183.409437 42.83577,182.060955 L142.491929,9.4507157 C144.203855,10.255464 145.889247,11.1073311 147.546432,12.0046456 L148.784006,12.6861269 Z M135.483693,6.47825919 L36.7620587,177.469833 C34.6979735,175.782923 32.7025522,174.015155 30.7806287,172.171364 L127.905825,3.94556138 C130.047596,4.5667143 132.159741,5.25755917 134.239642,6.01547913 L135.483693,6.47825919 Z M120.272488,2.05607131 L25.3238472,166.510737 C23.5899544,164.565357 21.9309402,162.551787 20.351329,160.47455 L112.551319,0.780084772 C114.72318,1.05205181 116.873388,1.39366955 118.999634,1.80263138 L120.272488,2.05607131 Z M100,0 C101.415882,0 102.824891,0.0294258997 104.226449,0.0876995092 L15.5794954,153.625629 C5.71478537,138.128419 0,119.731589 0,100 C0,45.3238098 43.8805717,0.896476195 98.3463172,0.0133971429 L100,0 Z" id="形状"></path>
            </g>
        </g>
    </g>
</svg>