<?xml version="1.0" encoding="UTF-8"?>
<svg width="1039px" height="246px" viewBox="0 0 1039 246" version="1.1" xmlns="http://www.w3.org/2000/svg" xmlns:xlink="http://www.w3.org/1999/xlink">
    <title>lunor</title>
    <g id="页面-1" stroke="none" stroke-width="1" fill="none" fill-rule="evenodd">
        <g id="lunor" fill="#000000" fill-rule="nonzero">
            <g id="shape">
                <path d="M75.414346,222.463868 C76.3502845,220.842775 78.4342116,220.293723 80.0689274,221.237527 L122.95818,246 L120.96597,245.983522 C113.225127,245.858016 105.658112,245.017428 98.3281056,243.524938 L74.9849274,230.043273 C73.3502116,229.099469 72.7837408,227.02021 73.7196793,225.399117 L75.414346,222.463868 Z M85.582346,204.852375 C86.5182845,203.231282 88.6022116,202.682231 90.2369274,203.626034 L155.913668,241.54686 C151.0642,242.890354 146.094366,243.944261 141.023955,244.688793 L85.1529274,212.43178 C83.5182116,211.487977 82.9517408,209.408717 83.8876793,207.787624 L85.582346,204.852375 Z M246,123 C246,174.767835 214.0191,219.066131 168.736542,237.215645 L168.578817,237.11575 L95.3209274,194.820288 C93.6862116,193.876484 93.1197408,191.797225 94.0556793,190.176131 L191.739106,20.9852863 C224.474933,43.0865385 246,80.5295449 246,123 Z M183.004327,15.6039361 L59.997592,228.661417 C57.5024635,227.170449 55.0645715,225.593608 52.6879971,223.934975 L175.265073,11.6243803 C177.370742,12.6142207 179.443773,13.6620172 181.482111,14.7657141 L183.004327,15.6039361 Z M166.644942,7.9682588 L45.2173323,218.287895 C42.6785073,216.212995 40.2241392,214.038641 37.8601733,211.770778 L157.324165,4.8530405 C159.958543,5.61705859 162.556481,6.46679777 165.11476,7.39903933 L166.644942,7.9682588 Z M147.935161,2.52896771 L31.148332,204.808207 C29.0156439,202.41539 26.9750564,199.938698 25.0321347,197.383697 L138.438122,0.959504269 C141.109512,1.29402373 143.754267,1.71421355 146.36955,2.21723659 L147.935161,2.52896771 Z M123,0 C124.741535,0 126.474616,0.0361938566 128.198532,0.107870396 L19.1627794,188.959523 C7.02918601,169.897956 0,147.269855 0,123 C0,55.748286 53.9731032,1.10266572 120.96597,0.0164784858 L123,0 Z"></path>
            </g>
            <g id="Lunor" transform="translate(361.894, 42.8)">
                <polygon id="路径" points="122.262 172.2 122.262 143.172 32.718 143.172 32.718 0 0 0 0 172.2"></polygon>
                <path d="M225.582,108.978 C225.582,133.332 210.822,147.108 195.816,147.108 C181.548,147.108 175.398,137.76 175.398,116.85 L175.398,48.708 L144.156,48.708 L144.156,125.952 C144.156,156.702 159.162,174.66 184.992,174.66 C202.212,174.66 216.726,163.098 226.074,149.568 L226.074,172.2 L256.824,172.2 L256.824,48.708 L225.582,48.708 L225.582,108.978 Z" id="路径"></path>
                <path d="M366.048,46.248 C348.582,46.248 334.068,57.81 324.72,71.586 L324.72,48.708 L293.97,48.708 L293.97,172.2 L325.212,172.2 L325.212,111.93 C325.212,87.576 339.972,73.8 354.978,73.8 C369.492,73.8 375.642,83.148 375.642,104.058 L375.642,172.2 L406.884,172.2 L406.884,94.956 C406.884,64.206 391.878,46.248 366.048,46.248 Z" id="路径"></path>
                <path d="M494.952,175.152 C532.098,175.152 555.714,148.83 555.714,110.946 C555.714,72.816 532.098,46.248 494.952,46.248 C458.298,46.248 434.436,72.816 434.436,110.946 C434.436,148.83 458.298,175.152 494.952,175.152 Z M494.952,149.814 C476.994,149.814 466.17,135.3 466.17,110.946 C466.17,86.346 476.994,71.586 494.952,71.586 C513.156,71.586 523.98,86.346 523.98,110.946 C523.98,135.3 513.156,149.814 494.952,149.814 Z" id="形状"></path>
                <path d="M650.424,46.002 C633.942,46.002 621.642,60.024 615.246,76.506 L615.246,48.708 L584.496,48.708 L584.496,172.2 L615.738,172.2 L615.738,110.946 C615.738,89.298 626.562,75.03 638.124,75.03 C645.504,75.03 649.44,80.688 649.44,90.774 L649.44,96.186 L676.5,96.186 C676.746,91.758 676.746,88.56 676.746,85.854 C676.746,64.206 670.104,46.002 650.424,46.002 Z" id="路径"></path>
            </g>
        </g>
    </g>
</svg>